solid FEMAP
facet normal 0.00000000E+0 -7.07107082E-1 7.07106481E-1
outer loop
vertex 2.00000000E+0 5.80084229E-1 1.54710681E+0
vertex 2.00000000E+0 7.23768311E-1 1.69079102E+0
vertex 0.00000000E+0 5.80084229E-1 1.54710681E+0
endloop
endfacet
facet normal 0.00000000E+0 -7.07107082E-1 7.07106481E-1
outer loop
vertex 0.00000000E+0 5.80084229E-1 1.54710681E+0
vertex 2.00000000E+0 7.23768311E-1 1.69079102E+0
vertex 0.00000000E+0 7.23768311E-1 1.69079102E+0
endloop
endfacet
facet normal 0.00000000E+0 0.00000000E+0 1.00000000E+0
outer loop
vertex 2.00000000E+0 1.73684189E-1 1.54710681E+0
vertex 2.00000000E+0 5.80084229E-1 1.54710681E+0
vertex 0.00000000E+0 1.73684189E-1 1.54710681E+0
endloop
endfacet
facet normal 0.00000000E+0 0.00000000E+0 1.00000000E+0
outer loop
vertex 0.00000000E+0 1.73684189E-1 1.54710681E+0
vertex 2.00000000E+0 5.80084229E-1 1.54710681E+0
vertex 0.00000000E+0 5.80084229E-1 1.54710681E+0
endloop
endfacet
facet normal 0.00000000E+0 7.07107044E-1 7.07106518E-1
outer loop
vertex 2.00000000E+0 3.00000916E-2 1.69079102E+0
vertex 2.00000000E+0 1.73684189E-1 1.54710681E+0
vertex 0.00000000E+0 3.00000916E-2 1.69079102E+0
endloop
endfacet
facet normal 0.00000000E+0 7.07107044E-1 7.07106518E-1
outer loop
vertex 0.00000000E+0 3.00000916E-2 1.69079102E+0
vertex 2.00000000E+0 1.73684189E-1 1.54710681E+0
vertex 0.00000000E+0 1.73684189E-1 1.54710681E+0
endloop
endfacet
endsolid FEMAP
